# xmcd
#
# Track frame offsets: 
#        150
#        19227
#        49699
#        75054
#        104328
#        128022
#        139296
#        163801
#        187088
#        209209
#        227860
#        249312
#        267522
#        292274
#        309862
#
# Disc length: 4501 seconds
#
# Revision: 0
# Processed by: cddbd v1.5.2PL0 Copyright (c) Steve Scherf et al.
# Submitted via: ExactAudioCopyFreeDBPlugin 1.0
#
DISCID=dc11930f
DTITLE=Verschiedene Interpreten - The Tropical Club Night CD2
DYEAR=2014
DGENRE=Pop
TTITLE0=Bert on Beats - Pa Pa Pa
TTITLE1=Ernesto Mendoza - Selso Cumbia
TTITLE2=Adrian Oblanca - Ta Passando
TTITLE3=Alexander Zabbi - Xumba
TTITLE4=MaxD'Kay and Daduh King - Tchuco Tchuco
TTITLE5=Bonde Do Role - Danca Molengo
TTITLE6=Empresarios - Cumbia Salvaje
TTITLE7=Novalima - Diablo
TTITLE8=Cobia Doble Systema - Colegiala
TTITLE9=Skeewiff and Rayna - Fritata De Cumbia
TTITLE10=MC Y2K and Mickael Akordeon - Chabada Na Bunda
TTITLE11=Jon Kennedy - Bossa No Var
TTITLE12=Nick and Danny Chatelain - Katrinyla
TTITLE13=Gil Perez and Pupilos Do Kuduro - Confusao
TTITLE14=Oscar Barila and Sergio Parrado - Mira
EXTD=
EXTT0=
EXTT1=
EXTT2=
EXTT3=
EXTT4=
EXTT5=
EXTT6=
EXTT7=
EXTT8=
EXTT9=
EXTT10=
EXTT11=
EXTT12=
EXTT13=
EXTT14=
PLAYORDER=
